<?xml version="1.0" encoding="utf-8"?>
<!-- Generator: Adobe Illustrator 26.0.0, SVG Export Plug-In . SVG Version: 6.00 Build 0)  -->
<svg version="1.1" id="Capa_1" xmlns="http://www.w3.org/2000/svg" xmlns:xlink="http://www.w3.org/1999/xlink" x="0px" y="0px"
	 viewBox="0 0 871.5 885.3" style="enable-background:new 0 0 871.5 885.3;" xml:space="preserve">
<g>
	<path d="M430.4,95c59.3-2.2,101.7-29.3,129.1-80.3c1.9-3.6,1.8-5.5-2.4-6.9c-4.4-1.5-9.2-5.9-12.6-4.9c-3.4,1-5.3,7.1-7.9,10.9
		c-15.5,22.7-34.7,41.3-60,52.8C435,85.5,396.7,78.5,361.5,50.9c-16.2-12.7-28.6-28.7-39.3-46.2c-2-3.2-3.4-3.7-6.5-1.6
		c-3.1,2.2-6.5,4.1-10,5.7c-3,1.4-2.9,2.8-1.5,5.4C331.2,65.6,373.7,92.4,430.4,95z"/>
	<path d="M342.8,22.5C383.1,33,424,36.4,465.6,32.9c18.4-1.5,36.7-3.9,54.7-8.2c2.6-0.6,4.5-1.7,6.1-3.9c4.6-6.2,9.3-12.4,13.5-20.8
		c-72,20.7-142.9,18.2-215.3,0.7c4.5,8,8.8,14.2,13.6,20C339.1,21.8,341.2,22.1,342.8,22.5z"/>
	<path d="M359.5,43.1c38.1,37,96.7,41.2,141.8,2.8C477,49.1,453.6,51.1,430,51C406.5,50.9,383.1,48.9,359.5,43.1z"/>
	<path d="M516.1,32.6c0.7-0.8,1.3-1.4,2.9-3.3c-59.2,12-117,12.4-174.7-1.8c1.8,2.2,2.2,3.6,5,6.4c0.2,0.2,0.6,0.8,1.1,1
		c9.9,4.5,20.4,6.9,31.2,8.5c37.2,5.4,74.3,4.1,111.5-0.6c2.5-0.3,5-0.6,7.4-0.9C508.4,40.8,512,37.8,516.1,32.6z"/>
	<path d="M695.6,856c1.8-38.2-0.5-76.3-1-114.5c-1.6-128.6-3.8-257.3-3.8-385.9c0-14.3-3.3-27.6-6.7-41.1
		c-15.1-61-19.4-122.6-10.6-184.9c3-21.5,7.6-42.6,14.9-63.1c1.3-3.7,1-5.3-2.9-6.9C646.7,44,608,28.3,569.3,12.6
		c-3.3-1.3-4.2-0.2-5.5,2.4C552,38.5,535.6,58.1,514,73.2c-49.5,34.8-119.7,33.7-168.1-2.7c-19.4-14.6-34.5-32.7-45.3-54.4
		c-1.2-2.3-1.8-4.3-5.4-2.6c-35.6,16.7-71.7,32.2-107.7,47.9c-4.2,1.8-4.6,3.5-3.3,7.6c12.1,36.1,16.3,73.4,16.5,111.2
		c0.3,52.7-6.4,104.7-18.6,155.9c-1.4,5.9-1.1,11.9-1.2,17.9c-1.6,80.8-3,161.6-4.5,242.4c-0.8,82.5-1.3,165-1.6,247.5
		c0,5.2,1.3,10.6,0.9,15.5c-0.4,4.3-0.3,8.7-0.9,13c-0.6,4.6,0.8,6.2,5.8,6.4c49.4,2,473.4,3.1,511.7,0.8c3.6-0.2,5-1.2,4.7-5
		C696.5,868.4,695.4,862,695.6,856z M188.9,855.9c-4.4-0.3-8.4-0.7-11.8-1.1l0.1-1c3.4,0.4,7.4,0.7,11.8,1.1L188.9,855.9z
		 M204.7,856.9c-4.1-0.2-8.1-0.5-11.8-0.8l0.1-1c3.7,0.3,7.7,0.5,11.8,0.8L204.7,856.9z M220.5,857.8c-4.3-0.2-8.2-0.4-11.8-0.6
		l0.1-1c3.6,0.2,7.6,0.4,11.8,0.6L220.5,857.8z M236.2,858.5c-4.2-0.2-8.1-0.3-11.8-0.5l0-1c3.7,0.2,7.7,0.3,11.8,0.5L236.2,858.5z
		 M252,859.1c-4.1-0.1-8.1-0.3-11.8-0.4l0-1c3.8,0.1,7.7,0.3,11.8,0.4L252,859.1z M267.8,859.6c-4.1-0.1-8.1-0.2-11.8-0.4l0-1
		c3.8,0.1,7.7,0.2,11.8,0.4L267.8,859.6z M283.6,860c-4.1-0.1-8-0.2-11.8-0.3l0-1c3.8,0.1,7.8,0.2,11.8,0.3L283.6,860z M299.4,860.3
		c-4.1-0.1-8-0.2-11.9-0.3l0-1c3.8,0.1,7.8,0.2,11.8,0.3L299.4,860.3z M315.2,860.6c-4.1-0.1-8-0.1-11.9-0.2l0-1
		c3.8,0.1,7.8,0.1,11.8,0.2L315.2,860.6z M331,860.9c-4-0.1-8-0.1-11.9-0.2l0-1c3.9,0.1,7.8,0.1,11.9,0.2L331,860.9z M346.8,861.1
		c-4,0-8-0.1-11.9-0.1l0-1c3.9,0.1,7.8,0.1,11.9,0.1L346.8,861.1z M362.6,861.2c-4,0-8-0.1-11.9-0.1l0-1c3.9,0,7.8,0.1,11.9,0.1
		L362.6,861.2z M378.5,861.3c-4,0-8-0.1-11.9-0.1l0-1c3.9,0,7.8,0.1,11.9,0.1L378.5,861.3z M394.3,861.4c-4,0-8,0-11.9-0.1l0-1
		c3.9,0,7.8,0,11.9,0.1L394.3,861.4z M410.1,861.5c-4,0-8,0-11.9,0l0-1c3.9,0,7.8,0,11.9,0L410.1,861.5z M425.9,861.5
		c-4,0-8,0-11.9,0l0-1c3.9,0,7.8,0,11.9,0L425.9,861.5z M441.7,861.5l-6,0l-5.9,0v-1l5.9,0l6,0V861.5z M445.6,861.5l0-1
		c4,0,8,0,11.9,0l0,1C453.6,861.5,449.7,861.5,445.6,861.5z M461.4,861.5l0-1c4,0,8,0,11.9,0l0,1
		C469.4,861.5,465.5,861.5,461.4,861.5z M477.3,861.4l0-1c4,0,8,0,11.9-0.1l0,1C485.2,861.4,481.3,861.4,477.3,861.4z M493.1,861.3
		l0-1c4,0,8-0.1,11.9-0.1l0,1C501,861.3,497.1,861.3,493.1,861.3z M508.9,861.2l0-1c4,0,8-0.1,11.9-0.1l0,1
		C516.8,861.1,512.9,861.2,508.9,861.2z M524.7,861.1l0-1c4,0,8-0.1,11.9-0.1l0,1C532.7,861,528.7,861,524.7,861.1z M540.5,860.9
		l0-1c4-0.1,8-0.1,11.9-0.2l0,1C548.5,860.7,544.5,860.8,540.5,860.9z M556.3,860.6l0-1c4.1-0.1,8-0.1,11.8-0.2l0,1
		C564.3,860.5,560.3,860.5,556.3,860.6z M572.1,860.3l0-1c4.1-0.1,8-0.2,11.8-0.3l0,1C580.1,860.2,576.2,860.2,572.1,860.3z
		 M587.9,860l0-1c4.1-0.1,8-0.2,11.8-0.3l0,1C595.9,859.8,592,859.9,587.9,860z M603.7,859.6l0-1c4.1-0.1,8.1-0.2,11.8-0.4l0,1
		C611.7,859.3,607.8,859.5,603.7,859.6z M619.5,859.1l0-1c4.1-0.1,8.1-0.3,11.8-0.4l0,1C627.6,858.8,623.6,858.9,619.5,859.1z
		 M635.3,858.5l0-1c4.2-0.2,8.1-0.3,11.8-0.5l0,1C643.4,858.2,639.5,858.3,635.3,858.5z M651.1,857.8l0-1c4.3-0.2,8.2-0.4,11.8-0.6
		l0.1,1C659.3,857.4,655.3,857.6,651.1,857.8z M666.8,857l-0.1-1c4.2-0.3,8.2-0.5,11.8-0.8l0.1,1C675,856.4,671,856.7,666.8,857z
		 M682.6,855.9l-0.1-1c4.4-0.3,8.4-0.7,11.8-1l0.1,1C691,855.2,687,855.5,682.6,855.9z"/>
	<path d="M179,332.5c14.6-64.2,21.8-129,15.5-194.9c-2.2-22.8-6.5-45.1-13.8-66.9c-0.4-1.2-0.5-2.6-1.7-3.5
		c-1.5,0.2-2.2,1.5-3.1,2.4c-0.6,0.6-1.8,1.9-1.8,1.9S45.6,204,10.4,240.1l0.6,0.6l-0.7,0.7l-0.6-0.6c-4.9,5.1-7.9,8-8.1,8.2
		c-2.3,2-2.1,3.4,0.1,5.5c39.8,39.4,79.5,78.8,119.1,118.3c2.5,2.5,4.4,3.1,7,0.5l6.8-5.1l-6-6.1l0.7-0.7l6.1,6.2l5.4-4
		c11.3-8.5,22.7-16.9,34.1-25.3C177.2,336.9,178.4,335.1,179,332.5z M21.9,253.2l-8.7-8.8l0.7-0.7l8.7,8.8L21.9,253.2z M33.4,265
		l-8.7-8.8l0.7-0.7l8.7,8.8L33.4,265z M45,276.8l-8.7-8.8l0.7-0.7l8.7,8.8L45,276.8z M56.5,288.6l-8.7-8.8l0.7-0.7l8.7,8.8
		L56.5,288.6z M68.1,300.3l-8.7-8.8l0.7-0.7l8.7,8.8L68.1,300.3z M79.6,312.1l-8.7-8.8l0.7-0.7l8.7,8.8L79.6,312.1z M91.2,323.9
		l-8.7-8.8l0.7-0.7l8.7,8.8L91.2,323.9z M102.7,335.7l-8.7-8.8l0.7-0.7l8.7,8.8L102.7,335.7z M114.3,347.5l-8.7-8.8l0.7-0.7l8.7,8.8
		L114.3,347.5z M125.8,359.3l-8.7-8.8l0.7-0.7l8.7,8.8L125.8,359.3z"/>
	<path d="M869.2,248.1l-7.1-7.5l-0.8,0.9l-0.7-0.7l0.9-0.9l-6.2-6.6c0,0-105-109.8-157.4-164.8c-4.4-4.6-4.4-4.6-6.4,1.4
		c-14.6,44.9-19.4,91-18.1,138c1.2,43.4,8.6,85.8,20.5,127.4c0.7,2.4,2,4,4,5.4c9.3,6.7,27.9,20.3,27.9,20.3l9.9,7.2l6.6-6.7
		l0.7,0.7l-6.5,6.6l1.1,0.8c9.6,6.9,9.5,7,18.2-1.7c37.8-37.6,75.6-75.1,113.6-112.5C872.3,252.4,872.3,250.6,869.2,248.1z
		 M745.7,359.3l-0.7-0.7l8.7-8.8l0.7,0.7L745.7,359.3z M757.3,347.5l-0.7-0.7l8.7-8.8l0.7,0.7L757.3,347.5z M768.8,335.7l-0.7-0.7
		l8.7-8.8l0.7,0.7L768.8,335.7z M780.4,323.9l-0.7-0.7l8.7-8.8l0.7,0.7L780.4,323.9z M791.9,312.1l-0.7-0.7l8.7-8.8l0.7,0.7
		L791.9,312.1z M803.5,300.3l-0.7-0.7l8.7-8.8l0.7,0.7L803.5,300.3z M815,288.6l-0.7-0.7l8.7-8.8l0.7,0.7L815,288.6z M826.6,276.8
		l-0.7-0.7l8.7-8.8l0.7,0.7L826.6,276.8z M838.1,265l-0.7-0.7l8.7-8.8l0.7,0.7L838.1,265z M849.7,253.2l-0.7-0.7l8.7-8.8l0.7,0.7
		L849.7,253.2z"/>
</g>
</svg>
